<svg xmlns="http://www.w3.org/2000/svg" viewBox="0 0 800 650" width="800" height="650">
  <!-- Background -->
  <rect width="800" height="650" fill="#000"/>

  <!-- Header area -->
  <text x="30" y="35" fill="#0f0" font-family="Courier New, monospace" font-size="20">SCORE: 0</text>
  <text x="320" y="35" fill="#0f0" font-family="Courier New, monospace" font-size="20">HIGH SCORE: 0</text>
  <text x="680" y="35" fill="#0f0" font-family="Courier New, monospace" font-size="20">LIVES: 3</text>

  <!-- Game canvas border -->
  <rect x="0" y="50" width="800" height="600" fill="#000" stroke="#0f0" stroke-width="2"/>

  <!-- UFO (red) -->
  <g fill="#f00">
    <rect x="390" y="90" width="20" height="8"/>
    <rect x="380" y="98" width="40" height="8"/>
    <rect x="370" y="106" width="60" height="8"/>
    <rect x="378" y="114" width="12" height="6"/>
    <rect x="410" y="114" width="12" height="6"/>
  </g>

  <!-- Row 1: Squid aliens (magenta) -->
  <g fill="#f0f">
    <!-- Squid 1 -->
    <rect x="96" y="130" width="8" height="8"/>
    <rect x="92" y="138" width="16" height="8"/>
    <rect x="88" y="146" width="24" height="8"/>
    <rect x="84" y="138" width="8" height="16"/>
    <rect x="108" y="138" width="8" height="16"/>
    <rect x="80" y="150" width="8" height="8"/>
    <rect x="112" y="150" width="8" height="8"/>

    <!-- Squid 2 -->
    <rect x="151" y="130" width="8" height="8"/>
    <rect x="147" y="138" width="16" height="8"/>
    <rect x="143" y="146" width="24" height="8"/>
    <rect x="139" y="138" width="8" height="16"/>
    <rect x="163" y="138" width="8" height="16"/>
    <rect x="135" y="150" width="8" height="8"/>
    <rect x="167" y="150" width="8" height="8"/>

    <!-- Squid 3 -->
    <rect x="206" y="130" width="8" height="8"/>
    <rect x="202" y="138" width="16" height="8"/>
    <rect x="198" y="146" width="24" height="8"/>
    <rect x="194" y="138" width="8" height="16"/>
    <rect x="218" y="138" width="8" height="16"/>
    <rect x="190" y="150" width="8" height="8"/>
    <rect x="222" y="150" width="8" height="8"/>

    <!-- Squid 4 -->
    <rect x="261" y="130" width="8" height="8"/>
    <rect x="257" y="138" width="16" height="8"/>
    <rect x="253" y="146" width="24" height="8"/>
    <rect x="249" y="138" width="8" height="16"/>
    <rect x="273" y="138" width="8" height="16"/>
    <rect x="245" y="150" width="8" height="8"/>
    <rect x="277" y="150" width="8" height="8"/>

    <!-- Squid 5 -->
    <rect x="316" y="130" width="8" height="8"/>
    <rect x="312" y="138" width="16" height="8"/>
    <rect x="308" y="146" width="24" height="8"/>
    <rect x="304" y="138" width="8" height="16"/>
    <rect x="328" y="138" width="8" height="16"/>
    <rect x="300" y="150" width="8" height="8"/>
    <rect x="332" y="150" width="8" height="8"/>

    <!-- Squid 6 -->
    <rect x="371" y="130" width="8" height="8"/>
    <rect x="367" y="138" width="16" height="8"/>
    <rect x="363" y="146" width="24" height="8"/>
    <rect x="359" y="138" width="8" height="16"/>
    <rect x="383" y="138" width="8" height="16"/>
    <rect x="355" y="150" width="8" height="8"/>
    <rect x="387" y="150" width="8" height="8"/>

    <!-- Squid 7 -->
    <rect x="426" y="130" width="8" height="8"/>
    <rect x="422" y="138" width="16" height="8"/>
    <rect x="418" y="146" width="24" height="8"/>
    <rect x="414" y="138" width="8" height="16"/>
    <rect x="438" y="138" width="8" height="16"/>
    <rect x="410" y="150" width="8" height="8"/>
    <rect x="442" y="150" width="8" height="8"/>

    <!-- Squid 8 -->
    <rect x="481" y="130" width="8" height="8"/>
    <rect x="477" y="138" width="16" height="8"/>
    <rect x="473" y="146" width="24" height="8"/>
    <rect x="469" y="138" width="8" height="16"/>
    <rect x="493" y="138" width="8" height="16"/>
    <rect x="465" y="150" width="8" height="8"/>
    <rect x="497" y="150" width="8" height="8"/>

    <!-- Squid 9 -->
    <rect x="536" y="130" width="8" height="8"/>
    <rect x="532" y="138" width="16" height="8"/>
    <rect x="528" y="146" width="24" height="8"/>
    <rect x="524" y="138" width="8" height="16"/>
    <rect x="548" y="138" width="8" height="16"/>
    <rect x="520" y="150" width="8" height="8"/>
    <rect x="552" y="150" width="8" height="8"/>

    <!-- Squid 10 -->
    <rect x="591" y="130" width="8" height="8"/>
    <rect x="587" y="138" width="16" height="8"/>
    <rect x="583" y="146" width="24" height="8"/>
    <rect x="579" y="138" width="8" height="16"/>
    <rect x="603" y="138" width="8" height="16"/>
    <rect x="575" y="150" width="8" height="8"/>
    <rect x="607" y="150" width="8" height="8"/>

    <!-- Squid 11 -->
    <rect x="646" y="130" width="8" height="8"/>
    <rect x="642" y="138" width="16" height="8"/>
    <rect x="638" y="146" width="24" height="8"/>
    <rect x="634" y="138" width="8" height="16"/>
    <rect x="658" y="138" width="8" height="16"/>
    <rect x="630" y="150" width="8" height="8"/>
    <rect x="662" y="150" width="8" height="8"/>
  </g>

  <!-- Rows 2-3: Crab aliens (cyan) - simplified representation -->
  <g fill="#0ff">
    <!-- Row 2 - 11 crabs -->
    <rect x="80" y="175" width="40" height="25"/>
    <rect x="135" y="175" width="40" height="25"/>
    <rect x="190" y="175" width="40" height="25"/>
    <rect x="245" y="175" width="40" height="25"/>
    <rect x="300" y="175" width="40" height="25"/>
    <rect x="355" y="175" width="40" height="25"/>
    <rect x="410" y="175" width="40" height="25"/>
    <rect x="465" y="175" width="40" height="25"/>
    <rect x="520" y="175" width="40" height="25"/>
    <rect x="575" y="175" width="40" height="25"/>
    <rect x="630" y="175" width="40" height="25"/>

    <!-- Row 3 - 11 crabs -->
    <rect x="80" y="220" width="40" height="25"/>
    <rect x="135" y="220" width="40" height="25"/>
    <rect x="190" y="220" width="40" height="25"/>
    <rect x="245" y="220" width="40" height="25"/>
    <rect x="300" y="220" width="40" height="25"/>
    <rect x="355" y="220" width="40" height="25"/>
    <rect x="410" y="220" width="40" height="25"/>
    <rect x="465" y="220" width="40" height="25"/>
    <rect x="520" y="220" width="40" height="25"/>
    <rect x="575" y="220" width="40" height="25"/>
    <rect x="630" y="220" width="40" height="25"/>
  </g>

  <!-- Rows 4-5: Octopus aliens (yellow) -->
  <g fill="#ff0">
    <!-- Row 4 - 11 octopi -->
    <rect x="80" y="265" width="40" height="25"/>
    <rect x="135" y="265" width="40" height="25"/>
    <rect x="190" y="265" width="40" height="25"/>
    <rect x="245" y="265" width="40" height="25"/>
    <rect x="300" y="265" width="40" height="25"/>
    <rect x="355" y="265" width="40" height="25"/>
    <rect x="410" y="265" width="40" height="25"/>
    <rect x="465" y="265" width="40" height="25"/>
    <rect x="520" y="265" width="40" height="25"/>
    <rect x="575" y="265" width="40" height="25"/>
    <rect x="630" y="265" width="40" height="25"/>

    <!-- Row 5 - 11 octopi -->
    <rect x="80" y="310" width="40" height="25"/>
    <rect x="135" y="310" width="40" height="25"/>
    <rect x="190" y="310" width="40" height="25"/>
    <rect x="245" y="310" width="40" height="25"/>
    <rect x="300" y="310" width="40" height="25"/>
    <rect x="355" y="310" width="40" height="25"/>
    <rect x="410" y="310" width="40" height="25"/>
    <rect x="465" y="310" width="40" height="25"/>
    <rect x="520" y="310" width="40" height="25"/>
    <rect x="575" y="310" width="40" height="25"/>
    <rect x="630" y="310" width="40" height="25"/>
  </g>

  <!-- Shields (4 green barriers) -->
  <g fill="#0f0">
    <!-- Shield 1 -->
    <path d="M110,500 h70 v35 h-25 v-15 h-20 v15 h-25 v-35 z"/>
    <rect x="115" y="485" width="60" height="15"/>

    <!-- Shield 2 -->
    <path d="M270,500 h70 v35 h-25 v-15 h-20 v15 h-25 v-35 z"/>
    <rect x="275" y="485" width="60" height="15"/>

    <!-- Shield 3 -->
    <path d="M430,500 h70 v35 h-25 v-15 h-20 v15 h-25 v-35 z"/>
    <rect x="435" y="485" width="60" height="15"/>

    <!-- Shield 4 -->
    <path d="M590,500 h70 v35 h-25 v-15 h-20 v15 h-25 v-35 z"/>
    <rect x="595" y="485" width="60" height="15"/>
  </g>

  <!-- Player ship (green) -->
  <g fill="#0f0">
    <rect x="375" y="600" width="50" height="20"/>
    <rect x="395" y="590" width="10" height="15"/>
    <rect x="397" y="585" width="6" height="10"/>
  </g>

  <!-- Player bullet (white) -->
  <rect x="399" y="555" width="3" height="15" fill="#fff"/>

  <!-- Ground line -->
  <rect x="0" y="630" width="800" height="2" fill="#0f0"/>
</svg>
